ModelForces
version=1
nRows=4
nColumns=155
inDegrees=no

This file contains the forces exerted on a model during a simulation.

A force is a generalized force, meaning that it can be either a force (N) or a torque (Nm).

Units are S.I. units (second, meters, Newtons, ...)
Angles are in degrees.

endheader
time	glut_med1_r	glut_med2_r	glut_med3_r	glut_min1_r	glut_min2_r	glut_min3_r	semimem_r	semiten_r	bifemlh_r	bifemsh_r	sar_r	add_long_r	add_brev_r	add_mag1_r	add_mag2_r	add_mag3_r	tfl_r	pect_r	grac_r	glut_max1_r	glut_max2_r	glut_max3_r	iliacus_r	psoas_r	quad_fem_r	gem_r	peri_r	rect_fem_r	vas_med_r	vas_int_r	vas_lat_r	med_gas_r	lat_gas_r	soleus_r	tib_post_r	flex_dig_r	flex_hal_r	tib_ant_r	per_brev_r	per_long_r	per_tert_r	ext_dig_r	ext_hal_r	glut_med1_l	glut_med2_l	glut_med3_l	glut_min1_l	glut_min2_l	glut_min3_l	semimem_l	semiten_l	bifemlh_l	bifemsh_l	sar_l	add_long_l	add_brev_l	add_mag1_l	add_mag2_l	add_mag3_l	tfl_l	pect_l	grac_l	glut_max1_l	glut_max2_l	glut_max3_l	iliacus_l	psoas_l	quad_fem_l	gem_l	peri_l	rect_fem_l	vas_med_l	vas_int_l	vas_lat_l	med_gas_l	lat_gas_l	soleus_l	tib_post_l	flex_dig_l	flex_hal_l	tib_ant_l	per_brev_l	per_long_l	per_tert_l	ext_dig_l	ext_hal_l	ercspn_r	ercspn_l	intobl_r	intobl_l	extobl_r	extobl_l	femur_lat_meniscii_r.femur_lat_r.force.X	femur_lat_meniscii_r.femur_lat_r.force.Y	femur_lat_meniscii_r.femur_lat_r.force.Z	femur_lat_meniscii_r.femur_lat_r.torque.X	femur_lat_meniscii_r.femur_lat_r.torque.Y	femur_lat_meniscii_r.femur_lat_r.torque.Z	femur_lat_meniscii_r.meniscus_lat_r.force.X	femur_lat_meniscii_r.meniscus_lat_r.force.Y	femur_lat_meniscii_r.meniscus_lat_r.force.Z	femur_lat_meniscii_r.meniscus_lat_r.torque.X	femur_lat_meniscii_r.meniscus_lat_r.torque.Y	femur_lat_meniscii_r.meniscus_lat_r.torque.Z	femur_med_meniscii_r.femur_med_r.force.X	femur_med_meniscii_r.femur_med_r.force.Y	femur_med_meniscii_r.femur_med_r.force.Z	femur_med_meniscii_r.femur_med_r.torque.X	femur_med_meniscii_r.femur_med_r.torque.Y	femur_med_meniscii_r.femur_med_r.torque.Z	femur_med_meniscii_r.meniscus_med_r.force.X	femur_med_meniscii_r.meniscus_med_r.force.Y	femur_med_meniscii_r.meniscus_med_r.force.Z	femur_med_meniscii_r.meniscus_med_r.torque.X	femur_med_meniscii_r.meniscus_med_r.torque.Y	femur_med_meniscii_r.meniscus_med_r.torque.Z	femur_med_tibia_r.tibia_upper_r.force.X	femur_med_tibia_r.tibia_upper_r.force.Y	femur_med_tibia_r.tibia_upper_r.force.Z	femur_med_tibia_r.tibia_upper_r.torque.X	femur_med_tibia_r.tibia_upper_r.torque.Y	femur_med_tibia_r.tibia_upper_r.torque.Z	femur_med_tibia_r.femur_med_r.force.X	femur_med_tibia_r.femur_med_r.force.Y	femur_med_tibia_r.femur_med_r.force.Z	femur_med_tibia_r.femur_med_r.torque.X	femur_med_tibia_r.femur_med_r.torque.Y	femur_med_tibia_r.femur_med_r.torque.Z	femur_lat_tibia_r.tibia_upper_r.force.X	femur_lat_tibia_r.tibia_upper_r.force.Y	femur_lat_tibia_r.tibia_upper_r.force.Z	femur_lat_tibia_r.tibia_upper_r.torque.X	femur_lat_tibia_r.tibia_upper_r.torque.Y	femur_lat_tibia_r.tibia_upper_r.torque.Z	femur_lat_tibia_r.femur_lat_r.force.X	femur_lat_tibia_r.femur_lat_r.force.Y	femur_lat_tibia_r.femur_lat_r.force.Z	femur_lat_tibia_r.femur_lat_r.torque.X	femur_lat_tibia_r.femur_lat_r.torque.Y	femur_lat_tibia_r.femur_lat_r.torque.Z	aACL_R	pACL_R	aPCL_R	pPCL_R	aMCL_R	mMCL_R	pMCL_R	aLCL_R	mLCL_R	pLCL_R	aPCL_L	pPCL_L	aMCL_L	aLCL_L
      0.06991635	      0.00000000	     14.28389772	     14.08822594	      6.86115968	      7.79339539	      5.17558695	      0.00000000	    237.34974271	    337.69463871	    440.06280199	    137.95054312	     15.21097714	     10.59440342	      0.00000000	      0.00000000	     11.00205800	      4.37788750	      0.00000000	    120.97841902	      8.47130525	     14.74804047	     11.30026093	     40.35674750	     33.10732084	      0.00000000	      5.66925486	      0.00000000	     45.65573259	      0.00000000	      0.00000000	      0.00000000	     69.77626565	     32.87253267	      0.00000000	     36.87796350	      7.46876982	      6.11303423	      0.00000000	      6.02499338	     24.52196343	      6.49647714	     10.53498203	      3.33179258	      0.00000000	     14.28389772	     14.08822594	      6.86115968	      7.79339539	      5.17558695	      0.00000000	     11.59205946	      3.77914889	     19.01468609	      3.90474032	     15.21097714	     10.59440342	      0.00000000	      0.00000000	     11.00205800	      8.28034566	      0.00000000	      4.06938852	      8.47130525	     14.74804047	     11.30026093	     40.35674750	     33.10732084	      0.00000000	      5.66925486	      0.00000000	     27.97160694	      0.00000000	      0.00000000	      0.00000000	      0.00000000	      0.00000000	     27.18709304	     59.83226532	     10.53781274	      8.86490387	      3.34781017	     10.02724751	     21.91147748	      4.99831921	      6.35294374	      1.86601241	     64.65941837	     64.65941837	     24.95832201	     24.95832201	     41.46250723	     41.46250723	     15.00418554	     57.19118341	      3.60202067	     -2.84586394	      0.36504565	      6.41011250	    -15.00418554	    -57.19118341	     -3.60202067	      1.65201551	     -0.44264883	     -0.20500069	      5.45182691	     24.16213782	      0.26424889	      0.39052270	     -0.10081423	      2.20325087	     -5.45182691	    -24.16213782	     -0.26424889	     -0.41306907	      0.08094855	      0.07837166	    -13.17154454	   -738.59302351	    116.81323225	    -16.54093687	      0.60095365	      2.92215859	     13.17154454	    738.59302351	   -116.81323225	     63.70435649	      0.28788208	      8.01583981	    -59.31778033	   -652.85136406	   -139.68630392	     21.67484550	     -1.98693613	      0.13605780	     59.31778033	    652.85136406	    139.68630392	    -73.06993134	      0.67954201	     27.79922529	     99.69884921	     92.38583749	      0.00000000	      0.00000000	      0.00000000	    -12.66125492	    -25.96044810	      0.00000000	      0.00000000	      0.00000000	      0.00000000	      0.00000000	      0.00000001	      0.00000000
      0.07107615	      0.00000000	     14.27264030	     14.33070794	      6.79560007	      7.72128740	      5.56142654	      0.00000000	    236.85597480	    335.87900875	    439.16136367	    138.17214244	     15.05958740	     10.49399635	      0.00000000	      0.00000000	     10.93542786	      4.42047160	      0.00000000	    120.96111588	      8.62525718	     14.63511336	     11.19273578	     40.07284250	     32.78488570	      0.00000000	      5.63315195	      0.00000000	     48.21439917	      0.00000000	      0.00000000	      0.00000000	     68.56812767	     32.45534017	      0.00000000	     36.20186614	      8.19656801	      6.67751307	      0.00000000	      5.24690162	     22.31576988	      7.94763512	     11.23420764	      3.60850673	      0.00000000	     14.27264030	     14.33070794	      6.79560007	      7.72128740	      5.56142654	      0.00000000	     11.47339600	      5.12976716	     18.82942765	      3.86757979	     15.05958740	     10.49399635	      0.00000000	      0.00000000	     10.93542786	      8.24183112	      0.00000000	      4.03008337	      8.62525718	     14.63511336	     11.19273578	     40.07284250	     32.78488570	      0.00000000	      5.63315195	      0.00000000	     27.91857839	      0.00000000	      0.00000000	      0.00000000	      0.00000000	      0.00000000	     29.88115342	     59.84550602	     10.68478106	      9.07803926	      5.29571082	     10.07397881	     21.98919673	      4.96068068	      6.43009544	      1.89718274	     64.04037549	     64.04037549	     24.70951067	     24.70951067	     41.22596672	     41.22596672	     14.11816330	     57.13036104	      4.39018971	     -3.17674685	      0.34106032	      6.03466828	    -14.11816330	    -57.13036104	     -4.39018971	      1.67992972	     -0.42282604	     -0.15710594	      5.91301128	     24.42469811	      0.47358460	      0.30708413	     -0.11062258	      2.39357053	     -5.91301128	    -24.42469811	     -0.47358460	     -0.40930687	      0.08756034	      0.07216064	    -25.85165335	   -755.98959213	    109.63944595	    -16.53792050	      0.81813628	      2.78581691	     25.85165335	    755.98959213	   -109.63944595	     61.00017707	     -0.00383623	     13.31263370	    -51.78347449	   -629.47688755	   -142.59436598	     21.23871205	     -1.85788688	      0.54788940	     51.78347449	    629.47688755	    142.59436598	    -73.83341178	      0.52176098	     24.45026981	    101.64999142	     93.23945047	      0.00000000	      0.00000000	      0.00000000	    -10.96999917	    -25.22753239	      0.00000000	      0.00000000	      0.00000000	      0.00000000	      0.00000000	      0.00000001	      0.00000000
      0.07223596	      0.00000000	     14.24441383	     14.48898861	      6.73110395	      7.65024845	      5.88119750	      0.00000000	    236.49001143	    333.98289285	    438.33522946	    138.42435502	     14.91068696	     10.39521719	      0.00000000	      0.00000000	     10.86656907	      4.46134020	      0.00000000	    120.99215638	      8.72357900	     14.51942522	     11.08624355	     39.79372000	     32.46789497	      0.00000000	      5.59677808	      0.00000000	     46.92619685	      0.00000000	      0.00000000	      0.00000000	     66.52507052	     31.59904633	      0.00000000	     35.30728489	      8.91578718	      7.21843397	      0.00000000	      4.62531337	     20.29130081	      1.20982917	     12.03892308	      3.91329333	      0.00000000	     14.24441383	     14.48898861	      6.73110395	      7.65024845	      5.88119750	      0.00000000	     11.35670089	      6.28885109	     18.64720097	      3.83102266	     14.91068696	     10.39521719	      0.00000000	      0.00000000	     10.86656907	      8.20245419	      0.00000000	      3.99141949	      8.72357900	     14.51942522	     11.08624355	     39.79372000	     32.46789497	      0.00000000	      5.59677808	      0.00000000	     27.85717040	      0.00000000	      0.00000000	      0.00000000	      0.00000000	      0.00000000	     32.35206637	     59.84954035	     10.80702585	      9.26980862	      6.90749575	     10.11248151	     22.05851727	      4.92261765	      6.51808173	      1.93249445	     63.43140539	     63.43140539	     24.46440405	     24.46440405	     40.99345626	     40.99345626	     12.69750145	     57.36784108	      4.25500789	     -3.12356829	      0.30589209	      5.43286061	    -12.69750145	    -57.36784108	     -4.25500789	      1.67846078	     -0.38269090	     -0.08503586	      5.89575934	     24.43103000	      0.26471778	      0.39319015	     -0.11057940	      2.38388249	     -5.89575934	    -24.43103000	     -0.26471778	     -0.41571153	      0.08930994	      0.08068733	    -31.32604950	   -772.06314586	    111.81907749	    -16.90877100	      0.97196139	      2.96310284	     31.32604950	    772.06314586	   -111.81907749	     62.24853802	     -0.13269889	     15.53355691	    -39.00985873	   -610.15124863	   -136.16737671	     20.51413520	     -1.55985195	      1.18010923	     39.00985873	    610.15124863	    136.16737671	    -70.71900976	      0.28862797	     18.89903183	    103.16542154	     93.76387667	      0.00000000	      0.00000000	      0.00000000	    -10.10643495	    -25.37640699	      0.00000000	      0.00000000	      0.00000000	      0.00000000	      0.00000000	      0.00000001	      0.00000000
      0.07339577	      0.00000000	     14.20143221	     14.58222932	      6.66765370	      7.58028393	      6.14582358	      0.00000000	    236.20321040	    331.85935126	    437.32060498	    138.65817780	     14.76423137	     10.29803757	      0.00000000	      0.00000000	     10.79572294	      4.49989114	      0.00000000	    121.04011434	      8.77978974	     14.40164668	     10.98086079	     39.51929177	     32.15624284	      0.00000000	      5.56021487	      0.00000000	     47.70162223	      0.00000000	      0.00000000	      0.00000000	     63.77263440	     30.35454833	      0.00000000	     34.18854750	      9.60694229	      7.72323771	      0.00000000	      4.14237410	     18.46059109	      3.41336206	     12.97532916	      4.25731190	      0.00000000	     14.20143221	     14.58222932	      6.66765370	      7.58028393	      6.14582358	      0.00000000	     11.24193686	      7.29960390	     18.46795301	      3.79505840	     14.76423137	     10.29803757	      0.00000000	      0.00000000	     10.79572294	      8.16228320	      0.00000000	      3.95338568	      8.77978974	     14.40164668	     10.98086079	     39.51929177	     32.15624284	      0.00000000	      5.56021487	      0.00000000	     27.78763058	      0.00000000	      0.00000000	      0.00000000	      0.00000000	      0.00000000	     34.62404475	     59.84706796	     10.90371696	      9.43905630	      8.27548406	     10.14329757	     22.11979938	      4.88423906	      6.61651160	      1.97177026	     62.83233240	     62.83233240	     24.22298342	     24.22298342	     40.76490022	     40.76490022	     11.78600601	     57.44534270	      4.58569530	     -3.26409497	      0.28200587	      5.04618899	    -11.78600601	    -57.44534270	     -4.58569530	      1.69173653	     -0.35949557	     -0.03424484	      6.04026495	     24.50673616	      0.17368196	      0.43014380	     -0.11239841	      2.44097059	     -6.04026495	    -24.50673616	     -0.17368196	     -0.41785244	      0.09146673	      0.08504954	    -42.90360106	   -783.72263974	    109.09702168	    -17.00277940	      1.19507313	      2.87591552	     42.90360106	    783.72263974	   -109.09702168	     61.32862554	     -0.39167130	     20.32712501	    -31.94035803	   -590.87891940	   -134.27990425	     19.97145588	     -1.41918421	      1.56918570	     31.94035803	    590.87891940	    134.27990425	    -69.52461527	      0.15768110	     15.76878650	    105.00402078	     94.51922893	      0.00000000	      0.00000000	      0.00000000	     -8.69576190	    -24.87786156	      0.00000000	      0.00000000	      0.00000000	      0.00000000	      0.00000000	      0.00000001	      0.00000000
